<svg width="300" height="100" xmlns="http://www.w3.org/2000/svg" xmlns:svg="http://www.w3.org/2000/svg">
  <g class="layer">
  <title>Layer 1</title>
  <path d="m5.51643,58.27465c36.85446,-0.23474 33.80282,0 38.14554,0.17606c4.34272,0.17606 4.34272,12.5 10.56338,12.44131c6.22066,-0.05868 12.0892,-32.33568 19.24883,-32.62911c7.15963,-0.29343 11.85446,50.29342 19.24883,50.70423c7.39437,0.4108 11.15023,-65.19953 19.48357,-65.49296c8.33334,-0.29343 9.74178,71.42018 18.07512,71.3615c8.33334,-0.05868 10.68075,-88.43897 19.48357,-88.49765c8.80282,-0.05868 9.74178,88.08685 18.5446,88.26291c8.80282,0.17606 10.446,-68.48592 19.01408,-69.01408c8.56808,-0.52817 12.32394,62.03051 18.30986,61.97183c5.98592,-0.05868 13.02816,-51.11503 20.18779,-51.64319c7.15963,-0.52817 11.38497,35.03521 18.30986,34.97653c6.92489,-0.05868 7.48169,-10.44648 9.85915,-12.44131c2.37746,-1.99483 6.54086,-1.11503 3.52113,-1.17371c-3.01973,-0.05868 32.22063,0.76291 34.74178,0.70423" fill="#000000" fill-opacity="0" id="svg_2" stroke="orangered" stroke-width="10"/>
 </g>
</svg>